<?xml version="1.0" encoding="UTF-8" standalone="no"?>
<svg width="20px" height="21px" viewBox="0 0 20 21" version="1.1" xmlns="http://www.w3.org/2000/svg" xmlns:xlink="http://www.w3.org/1999/xlink" xmlns:sketch="http://www.bohemiancoding.com/sketch/ns">
    <!-- Generator: Sketch 3.2.2 (9983) - http://www.bohemiancoding.com/sketch -->
    <title>cancel</title>
    <desc>Created with Sketch.</desc>
    <defs></defs>
    <g id="Final-Review" stroke="none" stroke-width="1" fill="none" fill-rule="evenodd" sketch:type="MSPage">
        <g id="WebGL-Page" sketch:type="MSArtboardGroup" transform="translate(-180.000000, -360.000000)">
            <g id="Rectangle-337-+-WEBGL-+-cancel" sketch:type="MSLayerGroup" transform="translate(109.000000, 355.000000)">
                <g id="cancel" transform="translate(81.000000, 15.416000) scale(1, -1) translate(-81.000000, -15.416000) translate(69.000000, 3.416000)" sketch:type="MSShapeGroup">
                    <path d="M24,0 L0,0 L0,24 L24,24 L24,0 Z" id="bounds"></path>
                    <path d="M12,22 C6.5,22 2,17.5 2,12 C2,6.5 6.5,2 12,2 C17.5,2 22,6.5 22,12 C22,17.5 17.5,22 12,22 L12,22 Z M17,8.4 L15.6,7 L12,10.6 L8.4,7 L7,8.4 L10.6,12 L7,15.6 L8.4,17 L12,13.4 L15.6,17 L17,15.6 L13.4,12 L17,8.4 L17,8.4 Z" id="Shape" fill="#FFFFFF"></path>
                </g>
            </g>
        </g>
    </g>
</svg>